HIERARCHY
ROOT hip
{
	OFFSET 0.000000 0.000000 0.000000 
	CHANNELS 6 Xposition Yposition Zposition Xrotation Zrotation Yrotation
	JOINT abdomen
	{
		OFFSET 0.000000 3.402643 0.000000 
		CHANNELS 3 Xrotation Zrotation Yrotation
		JOINT chest
		{
			OFFSET 0.000000 8.438565 -0.680529 
			CHANNELS 3 Xrotation Zrotation Yrotation
			JOINT neck
			{
				OFFSET 0.000000 9.885400 -0.272212 
				CHANNELS 3 Xrotation Zrotation Yrotation
				JOINT head
				{
					OFFSET 0.000000 3.130431 0.000000 
					CHANNELS 3 Xrotation Zrotation Yrotation
					End Site
					{
						OFFSET 0.000000 3.039250 0.000000 
					}
				}
			}
			JOINT lCollar
			{
				OFFSET 3.238290 6.669187 -0.816635 
				CHANNELS 3 Yrotation Zrotation Xrotation
				JOINT lShldr
				{
					OFFSET 2.515050 0.000000 0.000000 
					CHANNELS 3 Zrotation Yrotation Xrotation
					JOINT lForeArm
					{
						OFFSET 11.517700 0.000000 0.000000 
						CHANNELS 3 Yrotation Zrotation Xrotation
						JOINT lHand
						{
							OFFSET 9.026700 0.000000 0.000000 
							CHANNELS 3 Zrotation Yrotation Xrotation
							End Site
							{
								OFFSET 4.028470 0.000000 0.000000 
							}
						}
					}
				}
			}
			JOINT rCollar
			{
				OFFSET -3.238290 6.669187 -0.816635 
				CHANNELS 3 Yrotation Zrotation Xrotation
				JOINT rShldr
				{
					OFFSET -2.515050 0.000000 0.000000 
					CHANNELS 3 Zrotation Yrotation Xrotation
					JOINT rForeArm
					{
						OFFSET -11.517700 0.000000 0.000000 
						CHANNELS 3 Yrotation Zrotation Xrotation
						JOINT rHand
						{
							OFFSET -9.026700 0.000000 0.000000 
							CHANNELS 3 Zrotation Yrotation Xrotation
							End Site
							{
								OFFSET -4.028470 0.000000 0.000000 
							}
						}
					}
				}
			}
		}
	}
	JOINT lThigh
	{
		OFFSET 4.983750 -1.633274 1.361059 
		CHANNELS 3 Xrotation Zrotation Yrotation
		JOINT lShin
		{
			OFFSET -2.041588 -20.007561 0.000000 
			CHANNELS 3 Xrotation Zrotation Yrotation
			JOINT lFoot
			{
				OFFSET 0.000000 -19.190928 -1.224953 
				CHANNELS 3 Xrotation Yrotation Zrotation
				End Site
				{
					OFFSET 0.000000 -2.449906 4.627600 
				}
			}
		}
	}
	JOINT rThigh
	{
		OFFSET -4.983750 -1.633274 1.361059 
		CHANNELS 3 Xrotation Zrotation Yrotation
		JOINT rShin
		{
			OFFSET 2.041588 -20.007561 0.000000 
			CHANNELS 3 Xrotation Zrotation Yrotation
			JOINT rFoot
			{
				OFFSET 0.000000 -19.190928 -1.224953 
				CHANNELS 3 Xrotation Yrotation Zrotation
				End Site
				{
					OFFSET 0.000000 -2.449906 4.627600 
				}
			}
		}
	}
}
MOTION
Frames: 18
Frame Time: 0.062023
-0.120586 43.793808 0.659222 3.771650 1.919660 -0.927905 -0.038220 4.343262 -2.432369 -0.016380 1.861398 -1.042444 -0.063584 5.475739 1.271063 7.675870 7.652790 1.778720 2.000000 -2.000000 0.000000 -27.027800 -60.429298 154.910004 104.903000 -0.177176 0.151361 0.052226 -0.048768 -154.617004 -2.000000 2.000000 0.000000 78.531700 -3.962070 166.425995 -41.064899 0.317928 0.089815 -0.054399 -0.000465 -136.755997 -3.380563 -6.605189 1.566056 11.391268 2.293759 1.080439 -5.348325 6.090670 1.143949 -13.063761 -4.609694 5.173793 25.483315 -3.278734 -1.811560 -14.710474 -9.659307 -3.339552 
-0.129451 43.830788 0.446957 3.761380 1.676070 -0.348572 0.367219 4.169095 -2.495598 0.157380 1.786755 -1.069542 1.438455 4.150213 1.363325 8.128300 7.579620 1.677420 2.000000 -2.000000 0.000000 -37.969002 -58.548698 166.125000 106.749001 -0.172636 0.150073 0.052630 -0.050017 -155.085999 -2.000000 2.000000 0.000000 78.766296 -4.129150 166.884995 -41.826599 0.316725 0.091178 -0.054401 0.000984 -137.272995 -3.748046 -6.306579 1.182746 11.628871 2.306275 1.106297 -5.166550 5.811632 1.055730 -12.967210 -4.392855 4.803430 25.077719 -3.285284 -1.787500 -14.498721 -10.002559 -3.402531 
-0.145173 43.868538 0.227187 4.014980 1.461250 -0.268325 0.779380 3.783708 -2.459562 0.334020 1.621589 -1.054098 3.104109 3.080140 1.488369 8.542530 7.613640 1.636900 2.000000 -2.000000 0.000000 132.914001 -124.500999 -4.367400 108.408997 -0.168590 0.148791 0.052094 -0.048351 -154.460999 -2.000000 2.000000 0.000000 79.313499 -4.120820 167.500000 -42.549301 0.315567 0.092455 -0.054401 0.000847 -137.225006 -4.261594 -6.043979 0.991262 11.657448 2.265485 1.121881 -4.926441 5.874750 1.069209 -13.221378 -4.190462 4.753460 24.530930 -3.244527 -1.775197 -14.119955 -10.183920 -3.414871 
-0.151749 43.883881 0.023834 4.161370 1.383060 -0.289800 1.258041 3.643652 -2.315967 0.539160 1.561565 -0.992557 4.546780 1.990198 1.530265 8.848710 7.668120 1.526930 2.000000 -2.000000 0.000000 124.602997 -128.016998 3.919270 109.824997 -0.165170 0.147605 0.051857 -0.047595 -154.177994 -2.000000 2.000000 0.000000 79.479897 -4.200760 168.281006 -43.486801 0.314041 0.094091 -0.054405 0.001394 -137.419998 -4.645884 -5.936591 0.982281 11.718799 2.207711 1.135649 -4.790830 5.870271 1.070221 -13.496844 -4.111264 4.719392 24.213482 -3.253369 -1.751269 -13.724254 -10.297797 -3.389840 
-0.168622 43.907806 -0.202135 4.258660 1.139420 -0.315372 1.612101 3.185822 -1.961421 0.690900 1.365352 -0.840609 5.941601 0.786295 1.364897 9.162900 7.586030 1.327300 2.000000 -2.000000 0.000000 118.712997 -131.606003 10.214400 110.908997 -0.162572 0.146640 0.051922 -0.047803 -154.255997 -2.000000 2.000000 0.000000 80.163803 -4.231180 168.759003 -44.453602 0.312440 0.095751 -0.054404 0.001367 -137.410004 -5.280916 -5.656292 0.899157 12.308491 2.253080 1.186841 -4.942971 5.906065 1.094540 -13.588758 -3.823528 4.835099 23.655821 -3.216801 -1.730626 -13.343503 -10.580916 -3.398691 
-0.182632 43.922527 -0.392743 4.395290 1.061320 -0.338183 1.899309 3.380933 -1.976634 0.813990 1.448971 -0.847129 7.302177 -0.421065 1.687961 9.380620 7.651040 1.352220 2.000000 -2.000000 0.000000 113.508003 -136.108002 14.487100 111.924004 -0.160154 0.145692 0.051679 -0.047020 -153.962997 -2.000000 2.000000 0.000000 79.939598 -4.272740 169.824005 -45.479000 0.310711 0.097483 -0.054402 0.001093 -137.311996 -5.564437 -5.543859 0.749656 12.183102 2.181881 1.202342 -4.709829 6.032564 1.114268 -13.873550 -3.713670 4.982511 23.400085 -3.204145 -1.701774 -13.099730 -10.843435 -3.432062 
-0.196853 43.932758 -0.590098 4.453850 1.032030 -0.261252 2.143470 3.203771 -1.601384 0.918630 1.373045 -0.686308 8.820871 -2.010194 1.530185 9.900330 7.487760 1.180640 2.000000 -2.000000 0.000000 -70.308098 -40.670502 -161.884003 112.714996 -0.158283 0.144924 0.051914 -0.047777 -154.246002 -2.000000 2.000000 0.000000 80.310898 -4.283310 170.166000 -46.523899 0.308917 0.099215 -0.054412 0.002078 -137.664001 -5.870636 -5.494193 0.650955 12.221060 2.191541 1.202497 -4.537347 5.980983 1.092648 -14.044286 -3.679797 4.993002 23.260296 -3.212171 -1.684950 -12.988253 -11.018091 -3.443741 
-0.202847 43.942623 -0.753331 4.512300 0.915124 -0.005762 2.328759 3.440071 -1.762320 0.998040 1.474316 -0.755280 9.752311 -3.060132 1.853236 10.058800 7.543580 1.247440 2.000000 -2.000000 0.000000 -73.587196 -36.485500 -159.554993 113.935997 -0.155418 0.143688 0.051905 -0.047751 -154.235992 -2.000000 2.000000 0.000000 79.852402 -4.403810 171.572006 -47.910599 0.306489 0.101462 -0.054398 0.000164 -136.979996 -6.147349 -5.348403 0.567965 12.276755 2.156236 1.198360 -4.412833 5.772817 1.060461 -14.077244 -3.604275 4.927931 22.910748 -3.172079 -1.681717 -12.858011 -11.212414 -3.497479 
-0.221364 43.954895 -0.916007 4.980960 0.807486 -0.505668 2.688350 3.532053 -1.235468 1.152150 1.513737 -0.529486 10.810218 -4.228801 1.980247 10.559800 7.457740 1.284440 2.000000 -2.000000 0.000000 -75.688599 -33.512100 -157.438995 115.019997 -0.152895 0.142539 0.052435 -0.049419 -154.860992 -2.000000 2.000000 0.000000 -100.040001 -175.917007 -7.880850 -49.551300 0.303546 0.104044 -0.054399 -0.000520 -136.735992 -6.831291 -5.159012 0.980307 12.299975 2.089499 1.240576 -4.317942 5.762096 1.115004 -14.747717 -3.452991 5.298529 22.610485 -3.128914 -1.667272 -12.576512 -11.121149 -3.461114 
-0.216859 43.963596 -1.022591 5.000370 0.700449 -0.299929 2.919559 3.396330 -0.889653 1.251240 1.455570 -0.381280 11.373258 -5.653185 1.957289 10.947900 7.121340 1.266100 2.000000 -2.000000 0.000000 -76.532303 -31.008499 -155.817993 116.133003 -0.150328 0.141310 0.063817 -0.063921 -156.647995 -2.000000 2.000000 0.000000 -99.834702 -175.729996 -7.334410 -51.787601 0.299419 0.107426 -0.054402 0.001093 -137.311996 -7.173501 -5.027349 1.185601 12.659277 2.135954 1.257219 -4.522976 5.271395 1.044420 -14.729941 -3.353101 5.301869 22.363596 -3.129668 -1.660582 -12.461052 -11.393359 -3.502210 
-0.210589 43.958481 -1.082948 4.883300 0.807605 0.039831 2.953230 3.410876 -0.775019 1.265670 1.461804 -0.332151 12.430214 -7.462274 2.363005 11.534600 6.907610 1.439020 2.000000 -2.000000 0.000000 -76.977303 -28.565701 -155.158997 116.542999 -0.149388 0.140845 0.067197 -0.062787 -159.959000 -2.000000 2.000000 0.000000 -100.147003 -175.307007 -6.085410 -55.420399 0.292443 0.112569 -0.054425 0.002898 -137.957001 -7.079972 -5.144911 1.154857 12.508725 2.141150 1.231207 -4.346960 4.985264 0.967222 -14.680656 -3.521724 5.169517 22.528254 -3.148619 -1.651953 -12.686953 -11.458088 -3.572819 
-0.206335 43.953487 -1.109229 4.756550 0.973200 0.276441 2.707249 3.904593 -1.157684 1.160250 1.673397 -0.496150 13.974445 -9.765084 3.314934 12.339900 6.834600 1.888140 2.000000 -2.000000 0.000000 -77.383598 -25.148500 -155.507996 116.192001 -0.150194 0.141244 0.071842 -0.072748 -163.884995 -2.000000 2.000000 0.000000 -100.986000 -175.184006 -3.264260 -60.537601 0.282094 0.119042 -0.054668 0.009292 -140.242004 -6.900940 -5.324233 1.085213 12.324598 2.117411 1.233009 -4.261103 4.791181 0.944403 -14.621770 -3.705432 5.106619 22.741085 -3.185088 -1.675872 -12.828864 -11.524239 -3.601045 
-0.184954 43.948116 -1.093057 4.492930 1.041710 0.228499 1.918841 4.574374 -1.452386 0.822360 1.960446 -0.622451 16.400597 -13.135748 4.299363 13.821500 6.659260 2.469320 2.000000 -2.000000 0.000000 -78.336403 -20.608000 -155.766006 113.320999 -0.156859 0.144318 0.071521 -0.072113 -163.630997 -2.000000 2.000000 0.000000 -101.961998 -175.087997 -0.168788 -67.969299 0.266132 0.126741 -0.054991 0.013765 -141.843994 -6.666908 -5.396995 1.261931 12.457222 2.150614 1.223416 -4.390169 4.577471 0.901824 -14.371444 -3.759744 5.267256 22.827562 -3.202027 -1.678094 -12.965758 -11.554160 -3.611077 
-0.155777 43.926746 -1.058299 4.209860 1.168710 -0.148173 2.048270 3.760344 -0.769556 0.877830 1.611576 -0.329810 18.867653 -16.210642 4.224279 15.531900 6.235740 2.716410 2.000000 -2.000000 0.000000 -78.557503 -17.568600 -154.737000 108.417999 -0.168567 0.148783 0.071118 -0.071306 -163.307999 -2.000000 2.000000 0.000000 -101.318001 -176.666000 1.817660 -77.236900 0.245053 0.133346 -0.055002 0.013902 -141.891998 -6.269711 -5.546803 1.633399 12.360234 2.138553 1.224201 -4.434970 4.609686 0.928391 -14.233095 -3.874546 5.397968 23.089565 -3.233401 -1.681257 -12.898310 -11.348445 -3.496110 
-0.114947 43.904736 -1.033637 3.877920 1.276370 -0.430869 1.870960 3.294151 -0.587220 0.801840 1.411779 -0.251666 20.458475 -17.926369 4.358261 16.560499 6.114580 2.982270 2.000000 -2.000000 0.000000 -79.434601 -14.434300 -154.938995 102.374001 -0.183460 0.152886 0.069596 -0.068154 -162.057999 -2.000000 2.000000 0.000000 -101.435997 179.973999 5.498130 -87.109901 0.221742 0.136552 -0.054834 0.011803 -141.141006 -5.908945 -5.712484 1.763884 12.473365 2.167461 1.205233 -4.582138 4.806162 0.944360 -14.025949 -4.001698 5.492914 23.342506 -3.261825 -1.693762 -12.968591 -11.075926 -3.406068 
-0.081586 43.890163 -0.983321 3.624060 1.354710 -0.470640 1.466709 3.392214 -0.495690 0.628590 1.453806 -0.212438 21.367353 -18.788614 4.257342 16.982500 6.094070 3.016050 2.000000 -2.000000 0.000000 -81.064003 -11.982800 -154.789993 96.162697 -0.199124 0.155444 0.068839 -0.066515 -161.414001 -2.000000 2.000000 0.000000 77.849998 4.527320 -170.115997 -96.904701 0.199587 0.116275 -0.054555 0.007080 -139.451004 -5.607763 -5.881208 1.783548 12.541517 2.231934 1.209871 -4.674141 4.845636 0.901458 -13.819970 -4.093883 5.516733 23.592875 -3.300779 -1.678752 -13.083477 -11.034651 -3.398207 
-0.065048 43.890537 -0.933429 3.477740 1.491390 0.149443 0.953749 3.361673 -0.541368 0.408750 1.440717 -0.232015 21.455914 -18.978466 3.867610 17.018200 5.959820 2.842110 2.000000 -2.000000 0.000000 -82.371201 -9.989480 -154.266998 91.475197 -0.211078 0.156244 0.067912 -0.064443 -160.602997 -2.000000 2.000000 0.000000 76.618301 9.963860 -164.664001 -105.878998 0.180113 0.112352 -0.054421 0.007085 -135.964996 -5.321551 -6.018130 1.589759 12.264956 2.221390 1.194387 -4.578762 4.419836 0.821424 -13.577240 -4.307237 5.226131 23.867128 -3.320130 -1.699228 -13.549713 -11.074180 -3.505529 
-0.077467 43.879917 -0.835511 3.409270 1.433010 0.593390 0.783999 2.976302 -0.561611 0.336000 1.275558 -0.240691 21.041304 -18.177687 3.417080 16.644699 5.950310 2.574690 2.000000 -2.000000 0.000000 -82.604401 -7.801130 -153.871002 89.258301 -0.216619 0.136750 0.067207 -0.062812 -159.968994 -2.000000 2.000000 0.000000 74.418800 15.915200 -157.813995 -112.471001 0.166325 0.107558 -0.055767 -0.011150 -129.432007 -5.123773 -5.945997 1.625525 12.197267 2.209363 1.185199 -4.625660 4.075545 0.793323 -13.276525 -4.242315 5.184672 23.973743 -3.333953 -1.700941 -13.999865 -11.351211 -3.638626 
